<?xml version="1.0" encoding="utf-8"?>
<!-- Generator: Adobe Illustrator 15.1.0, SVG Export Plug-In . SVG Version: 6.00 Build 0)  -->
<!DOCTYPE svg PUBLIC "-//W3C//DTD SVG 1.1//EN" "http://www.w3.org/Graphics/SVG/1.1/DTD/svg11.dtd">
<svg version="1.1" id="Layer_1" xmlns="http://www.w3.org/2000/svg" xmlns:xlink="http://www.w3.org/1999/xlink" x="0px" y="0px"
	 width="1300px" height="740px" viewBox="0 0 1300 740" enable-background="new 0 0 1300 740" xml:space="preserve">
<path display="none" fill="#FFF5CA" d="M296.104,175.887c34.402,33.42,171.594,117.145,249.141,0
	c73.775-111.448,204.591-52.797,160.042,33.985c-60.091,117.056-104.908,173.356-23.098,238.252
	c93.596,74.248-26.4,197.992-133.646,97.346c-112.463-105.543-207.89-94.047-301.937-29.697
	c-51.995,35.576-133.645-37.949-42.899-122.098c79.169-73.409,2.655-120.378-31.56-142.203
	C89.863,198.986,180.609,63.692,296.104,175.887z"/>
<linearGradient id="SVGID_1_" gradientUnits="userSpaceOnUse" x1="-55.1187" y1="781.8018" x2="448.9853" y2="255.4746">
	<stop  offset="0.2" style="stop-color:#E78500"/>
	<stop  offset="0.703" style="stop-color:#ECC219"/>
</linearGradient>
<path display="none" fill="url(#SVGID_1_)" d="M687.589,740C687.589,334.089,0,412.085,0-9.394V740H687.589z"/>
<path fill="#111111" d="M602.139,581.713c0,8.55-6.932,15.484-15.482,15.484H304.121c-8.55,0-15.482-6.935-15.482-15.484V78.566
	c0-8.551,6.932-15.483,15.482-15.483h282.536c8.55,0,15.482,6.932,15.482,15.483V581.713z"/>
<path fill="#ECC219" d="M586.128,569.3c0,7.934-6.224,14.359-13.901,14.359H318.551c-7.677,0-13.901-6.426-13.901-14.359V102.674
	c0-7.931,6.224-14.359,13.901-14.359h253.675c7.677,0,13.901,6.428,13.901,14.359V569.3z"/>
<path fill="#111111" d="M520.147,99.435c0,10.038-13.655,18.176-30.498,18.176h-91.492c-16.842,0-30.498-8.138-30.498-18.176V81.259
	c0-10.039,13.656-18.177,30.498-18.177h91.492c16.842,0,30.498,8.138,30.498,18.177V99.435z"/>
<path fill="#FFFFFF" d="M470.079,94.035c0,2.036-1.651,3.688-3.688,3.688h-67.434c-2.036,0-3.688-1.651-3.688-3.688l0,0
	c0-2.037,1.651-3.688,3.688-3.688h67.434C468.427,90.347,470.079,91.998,470.079,94.035L470.079,94.035z"/>
<path fill="#FFFFFF" d="M500.77,94.035c0,2.036-1.651,3.688-3.688,3.688h-11.807c-2.036,0-3.687-1.651-3.687-3.688l0,0
	c0-2.036,1.651-3.688,3.687-3.688h11.807C499.118,90.347,500.77,91.999,500.77,94.035L500.77,94.035z"/>
<rect x="348.274" y="191.713" fill="#EDA112" width="197.857" height="324.172"/>
<linearGradient id="SVGID_2_" gradientUnits="userSpaceOnUse" x1="724.5" y1="296.9814" x2="1077.5" y2="296.9814">
	<stop  offset="0.5515" style="stop-color:#E78500"/>
	<stop  offset="0.703" style="stop-color:#ECC219"/>
</linearGradient>
<rect x="724.5" y="216.462" display="none" fill="url(#SVGID_2_)" width="353" height="161.038"/>
<circle fill="#FFCC00" cx="447.83" cy="335.987" r="63.135"/>
<g>
	<path fill="#FFFFFF" d="M473.697,319.68H462.27c-0.803-7.92-5.413-12.629-13.434-12.629c-6.515,0-11.628,3.005-11.628,9.523
		c0,6.715,4.109,9.826,14.836,12.331c15.236,3.507,22.455,10.022,22.455,21.55c0,12.53-11.126,20.149-24.56,20.149
		c-15.838,0-25.963-7.519-27.367-21.452h11.427c1.805,8.519,7.82,13.031,15.939,13.031c7.218,0,12.931-3.909,12.931-10.225
		c0-7.218-4.209-10.925-15.437-13.535c-13.131-3.105-21.854-8.018-21.854-20.047c0-12.23,10.927-19.75,23.859-19.75
		C464.775,298.628,472.294,307.653,473.697,319.68z"/>
</g>
<g>
	<g>
		<path fill="#FFFFFF" d="M444.846,295.818c0,1.415,0,2.829,0,4.244c0,2.043,1.671,3.764,3.724,3.778
			c2.032,0.013,3.778-1.681,3.778-3.724c0-1.415,0-2.829,0-4.244c0-2.043-1.671-3.764-3.724-3.778
			C446.592,292.081,444.846,293.775,444.846,295.818c0,1.415,0,2.829,0,4.244c0,2.043,1.671,3.764,3.724,3.778
			c2.032,0.013,3.778-1.681,3.778-3.724c0-1.415,0-2.829,0-4.244c0-2.043-1.671-3.764-3.724-3.778
			C446.592,292.081,444.846,293.775,444.846,295.818z"/>
	</g>
</g>
<g>
	<g>
		<path fill="#FFFFFF" d="M444.846,370.578c0,2.304,0,4.608,0,6.912c0,4.844,7.502,4.886,7.502,0.055c0-2.305,0-4.608,0-6.913
			C452.348,365.789,444.846,365.746,444.846,370.578c0,2.304,0,4.608,0,6.912c0,4.844,7.502,4.886,7.502,0.055
			c0-2.305,0-4.608,0-6.913C452.348,365.789,444.846,365.746,444.846,370.578z"/>
	</g>
</g>
<path fill="#FFFFFF" d="M271.549,261.266c0,12.713-10.305,23.018-23.019,23.018H59.271c-12.712,0-23.018-10.305-23.018-23.018
	V140.629c0-12.713,10.306-23.019,23.018-23.019h189.26c12.713,0,23.019,10.306,23.019,23.019V261.266z"/>
<g>
	<g>
		<path fill="#00FF8C" d="M85.99,153.989c0,28.133,0,56.267,0,84.4c0,6.771,10.5,6.771,10.5,0c0-28.133,0-56.267,0-84.4
			C96.49,147.218,85.99,147.218,85.99,153.989L85.99,153.989z"/>
	</g>
</g>
<g>
	<g>
		<path fill="#00FF8C" d="M126.911,153.989c0,28.133,0,56.267,0,84.4c0,6.771,10.5,6.771,10.5,0c0-28.133,0-56.267,0-84.4
			C137.411,147.218,126.911,147.218,126.911,153.989L126.911,153.989z"/>
	</g>
</g>
<g>
	<g>
		<path fill="#00FF8C" d="M167.831,153.989c0,28.133,0,56.267,0,84.4c0,6.771,10.5,6.771,10.5,0c0-28.133,0-56.267,0-84.4
			C178.331,147.218,167.831,147.218,167.831,153.989L167.831,153.989z"/>
	</g>
</g>
<g>
	<g>
		<path fill="#00FF8C" d="M215.147,153.989c0,28.133,0,56.267,0,84.4c0,6.771,10.5,6.771,10.5,0c0-28.133,0-56.267,0-84.4
			C225.647,147.218,215.147,147.218,215.147,153.989L215.147,153.989z"/>
	</g>
</g>
<path fill="#EDA112" d="M81.169,191.713h20.141c0,0,0,33.568,0,46.676c0,13.107-20.141,13.168-20.141,1.879
	C81.169,221.444,81.169,191.713,81.169,191.713z"/>
<path fill="#EDA112" d="M122.091,170.133h20.141c0,0,0,50.166,0,68.255c0,14.066-20.141,14.066-20.096,0
	C122.219,212.412,122.091,170.133,122.091,170.133z"/>
<path fill="#EDA112" d="M163.011,216.026h20.141c0,0,0,14.867,0,22.362c0,13.427-20.141,13.907-20.141,0
	C163.011,227.626,163.011,216.026,163.011,216.026z"/>
<path fill="#EDA112" d="M210.326,191.713h20.141c0,0,0,33.568,0,46.676c0,13.107-20.141,13.267-20.141,0
	C210.326,219.565,210.326,191.713,210.326,191.713z"/>
<path fill="#FFFFFF" d="M1058.697,658.993c0,11.881-9.634,21.516-21.517,21.516H660.654c-11.883,0-21.516-9.635-21.516-21.516
	V420.641c0-11.883,9.633-21.517,21.516-21.517h376.526c11.883,0,21.517,9.634,21.517,21.517V658.993z"/>
<path fill="#FFCC00" d="M1038.816,647.699c0,10.756-8.723,19.477-19.478,19.477H678.496c-10.759,0-19.478-8.721-19.478-19.477
	V431.935c0-10.758,8.719-19.477,19.478-19.477h340.843c10.755,0,19.478,8.719,19.478,19.477V647.699z"/>
<circle fill="#111111" cx="848.917" cy="477.52" r="46.037"/>
<circle fill="#FFFFFF" cx="848.917" cy="461.217" r="22.06"/>
<path fill="#FFFFFF" d="M815.632,509.303c8.383,8.777,20.19,14.254,33.286,14.254c13.045,0,24.813-5.436,33.189-14.152
	c0.002-0.002,0.003-0.004,0.003-0.006C871.003,483.338,827.082,483.279,815.632,509.303z"/>
<g>
	<g>
		<path fill="#FFFFFF" d="M702.61,557.747c42.273,0,84.548,0,126.821,0c53.062,0,106.122,0,159.184,0c2.172,0,4.344,0,6.516,0
			c4.514,0,4.514-7,0-7c-42.273,0-84.548,0-126.821,0c-53.062,0-106.122,0-159.184,0c-2.172,0-4.344,0-6.516,0
			C698.097,550.747,698.097,557.747,702.61,557.747L702.61,557.747z"/>
	</g>
</g>
<g>
	<g>
		<path fill="#FFFFFF" d="M702.61,587.159c42.273,0,84.548,0,126.821,0c53.062,0,106.122,0,159.184,0c2.172,0,4.344,0,6.516,0
			c4.514,0,4.514-7,0-7c-42.273,0-84.548,0-126.821,0c-53.062,0-106.122,0-159.184,0c-2.172,0-4.344,0-6.516,0
			C698.097,580.159,698.097,587.159,702.61,587.159L702.61,587.159z"/>
	</g>
</g>
<g>
	<g>
		<path fill="#FFFFFF" d="M769.219,616.252c49.32,0,98.641,0,147.962,0c3.78,0,7.561,0,11.341,0c4.514,0,4.514-7,0-7
			c-49.32,0-98.641,0-147.962,0c-3.78,0-7.561,0-11.341,0C764.705,609.252,764.705,616.252,769.219,616.252L769.219,616.252z"/>
	</g>
</g>
<path fill="#FFFFFF" d="M1270.915,330.78c0,12.711-10.307,23.018-23.018,23.018h-522.27c-12.712,0-23.018-10.307-23.018-23.018
	V63.195c0-12.713,10.306-23.018,23.018-23.018h522.27c12.711,0,23.018,10.305,23.018,23.018V330.78z"/>
<path fill="#EDA112" d="M1247.897,40.177h-522.27c-12.712,0-23.018,10.305-23.018,23.018v30.839h568.305V63.195
	C1270.915,50.482,1260.608,40.177,1247.897,40.177z"/>
<circle fill="#FAC9CD" cx="733.188" cy="67.106" r="8.311"/>
<circle fill="#F8D89D" cx="760.042" cy="67.106" r="8.311"/>
<circle fill="#69EDE0" cx="786.257" cy="67.106" r="8.312"/>
<rect x="760.042" y="138.644" fill="#FEDEAB" width="196.922" height="175.194"/>
<path fill="#FEDEAB" d="M1032.158,168.694c0,13.419-10.875,24.297-24.296,24.297c-13.419,0-24.295-10.878-24.295-24.297
	c0-13.418,10.876-24.296,24.295-24.296C1021.283,144.398,1032.158,155.276,1032.158,168.694z"/>
<path fill="#FEDEAB" d="M1032.158,230.716c0,13.419-10.875,24.296-24.296,24.296c-13.419,0-24.295-10.877-24.295-24.296
	s10.876-24.296,24.295-24.296C1021.283,206.419,1032.158,217.297,1032.158,230.716z"/>
<path fill="#FEDEAB" d="M1032.158,295.294c0,13.42-10.875,24.295-24.296,24.295c-13.419,0-24.295-10.875-24.295-24.295
	c0-13.419,10.876-24.296,24.295-24.296C1021.283,270.998,1032.158,281.875,1032.158,295.294z"/>
<g>
	<g>
		<path fill="#FEDEAB" d="M1055.452,159.047c49.651,0,99.302,0,148.953,0c5.763,0,11.526,0,17.289,0c0.038,0,0.038-5,0-5
			c-49.651,0-99.302,0-148.953,0c-5.763,0-11.526,0-17.289,0C1055.414,154.047,1055.414,159.047,1055.452,159.047L1055.452,159.047z
			"/>
	</g>
</g>
<g>
	<g>
		<path fill="#FEDEAB" d="M1055.452,222.347c49.651,0,99.302,0,148.953,0c5.763,0,11.526,0,17.289,0c0.038,0,0.038-5,0-5
			c-49.651,0-99.302,0-148.953,0c-5.763,0-11.526,0-17.289,0C1055.414,217.347,1055.414,222.347,1055.452,222.347L1055.452,222.347z
			"/>
	</g>
</g>
<g>
	<g>
		<path fill="#FEDEAB" d="M1055.452,288.784c49.651,0,99.302,0,148.953,0c5.763,0,11.526,0,17.289,0c0.038,0,0.038-5,0-5
			c-49.651,0-99.302,0-148.953,0c-5.763,0-11.526,0-17.289,0C1055.414,283.784,1055.414,288.784,1055.452,288.784L1055.452,288.784z
			"/>
	</g>
</g>
<g>
	<g>
		<path fill="#FEDEAB" d="M1055.452,179.507c22.166,0,44.331,0,66.497,0c0.038,0,0.038-5,0-5c-22.166,0-44.331,0-66.497,0
			C1055.414,174.507,1055.414,179.507,1055.452,179.507L1055.452,179.507z"/>
	</g>
</g>
<g>
	<g>
		<path fill="#FEDEAB" d="M1055.452,242.167c22.166,0,44.331,0,66.497,0c0.038,0,0.038-5,0-5c-22.166,0-44.331,0-66.497,0
			C1055.414,237.167,1055.414,242.167,1055.452,242.167L1055.452,242.167z"/>
	</g>
</g>
<g>
	<g>
		<path fill="#FEDEAB" d="M1055.452,309.944c22.166,0,44.331,0,66.497,0c0.038,0,0.038-5,0-5c-22.166,0-44.331,0-66.497,0
			C1055.414,304.944,1055.414,309.944,1055.452,309.944L1055.452,309.944z"/>
	</g>
</g>
</svg>
