<?xml version="1.0" encoding="utf-8"?>
<!-- Generator: Adobe Illustrator 15.1.0, SVG Export Plug-In . SVG Version: 6.00 Build 0)  -->
<!DOCTYPE svg PUBLIC "-//W3C//DTD SVG 1.1//EN" "http://www.w3.org/Graphics/SVG/1.1/DTD/svg11.dtd">
<svg version="1.1" xmlns="http://www.w3.org/2000/svg" xmlns:xlink="http://www.w3.org/1999/xlink" x="0px" y="0px" width="2000px"
	 height="2000px" viewBox="0 0 2000 2000" enable-background="new 0 0 2000 2000" xml:space="preserve">
<g id="Layer_1_copy_3" display="none">
	
		<text transform="matrix(1 0 0 1 535.3418 1849.2236)" display="inline" fill="#2F1951" font-family="'CenturyGothic'" font-size="218.2321">Grapevine</text>
	<linearGradient id="SVGID_1_" gradientUnits="userSpaceOnUse" x1="230.4697" y1="1767.0732" x2="495.4697" y2="1767.0732">
		<stop  offset="0" style="stop-color:#C87EFB"/>
		<stop  offset="1" style="stop-color:#8665E1"/>
	</linearGradient>
	<path display="inline" fill="url(#SVGID_1_)" d="M495.468,1833.239l-0.081-129.396c0.049-1.002,0.083-2.006,0.083-3.02
		c0-1.059-0.032-2.109-0.086-3.156v-0.09h-0.003c-1.742-33.619-30.417-60.65-66.379-62.842v-0.162H301.657
		c-1.48,0-2.948,0.055-4.406,0.139l-0.317,0.01v0.014c-35.96,2.193-64.633,29.223-66.376,62.842h-0.088v139.422h0.115
		c1.965,33.42,30.542,60.229,66.35,62.412v0.014h0.176c1.505,0.09,3.017,0.148,4.547,0.148c1.529,0,3.042-0.059,4.546-0.148h113.534
		c1.504,0.09,3.017,0.148,4.546,0.148c1.53,0,3.042-0.059,4.547-0.148h0.171v-0.014c35.809-2.182,64.389-28.992,66.354-62.412
		l0.113-3.596c0-0.027,0.002-0.053,0.002-0.08S495.468,1833.269,495.468,1833.239z"/>
	<path display="inline" fill="#FFFFFF" d="M308.6,1717.05c0,0,3.087-1.564,12.229-1.758c4.272-0.089,19.605,2.658,24.945,4.838
		c-2.772-4.569-16.982-20.75-74.318-6.679c0,0,9.945,35.862,71.289,9.414C336.921,1720.568,325.675,1717.277,308.6,1717.05z"/>
	<path display="inline" fill="#FFFFFF" d="M352.819,1716.352c2.425-5.896,5.593-12.38,7.176-14.572
		c5.355-7.41,8.397-9.063,8.397-9.063c-6.989,10.413-10.833,19.173-12.946,25.51c31.73-13.115,22.767-42.527,22.767-42.527
		C352.107,1691.772,351.836,1709.689,352.819,1716.352z"/>
	<path display="inline" fill="#FFFFFF" d="M345.634,1722.892c0,0-25.396-26.274-55.97-34.607c-4.756-1.612-2.423-9.492,3.174-8.021
		c0,0,29.627,11.443,53.772,39.871l0.811,0.948C349.241,1723.365,346.827,1724.197,345.634,1722.892z"/>
	<path display="inline" fill="#FFFFFF" d="M399.41,1809.819c-9.424,0-18.224-2.634-25.732-7.19
		c-6.925,14.377-20.407,24.999-36.57,27.99c6.388,15.794,21.858,26.94,39.942,26.94c23.792,0,43.079-19.287,43.079-43.079
		c0-3.009-0.313-5.943-0.9-8.778C413.155,1808.346,406.456,1809.819,399.41,1809.819z"/>
	<path display="inline" fill="#FFFFFF" d="M401.712,1713.545c-17.393,0-32.356,10.352-39.095,25.228
		c11.042,7.763,18.263,20.59,18.263,35.114c0,6.306-1.371,12.288-3.815,17.682c6.976,4.904,15.472,7.793,24.646,7.793
		c23.698,0,42.909-19.21,42.909-42.908C444.621,1732.754,425.41,1713.545,401.712,1713.545z"/>
	<circle display="inline" fill="#FFFFFF" cx="326.486" cy="1777.578" r="43.078"/>
</g>
<g id="Layer_1_copy_5" display="none">
	
		<text transform="matrix(1 0 0 1 532.1382 1351.0488)" display="inline" fill="#2F1951" font-family="'CenturyGothic'" font-size="218.2321">Grapevine</text>
	<linearGradient id="SVGID_2_" gradientUnits="userSpaceOnUse" x1="227.2661" y1="1268.8984" x2="492.2661" y2="1268.8984">
		<stop  offset="0" style="stop-color:#C87EFB"/>
		<stop  offset="1" style="stop-color:#8665E1"/>
	</linearGradient>
	<path display="inline" fill="url(#SVGID_2_)" d="M492.264,1335.064l-0.081-129.396c0.049-1.002,0.083-2.006,0.083-3.02
		c0-1.059-0.032-2.109-0.086-3.156v-0.09h-0.003c-1.742-33.619-30.417-60.65-66.379-62.842v-0.162H298.453
		c-1.48,0-2.948,0.055-4.406,0.139l-0.317,0.01v0.014c-35.96,2.193-64.633,29.223-66.376,62.842h-0.088v139.422h0.115
		c1.965,33.42,30.542,60.229,66.35,62.412v0.014h0.176c1.505,0.09,3.017,0.148,4.547,0.148c1.529,0,3.042-0.059,4.546-0.148h113.534
		c1.504,0.09,3.017,0.148,4.546,0.148c1.53,0,3.042-0.059,4.547-0.148h0.171v-0.014c35.809-2.182,64.389-28.992,66.354-62.412
		l0.113-3.596c0-0.027,0.002-0.053,0.002-0.08S492.264,1335.094,492.264,1335.064z"/>
	<path display="inline" fill="none" stroke="#FFFFFF" stroke-width="9" stroke-miterlimit="10" d="M456.292,1222.102
		c-1.272-24.563-22.211-44.313-48.473-45.913h-96.443c-26.259,1.603-47.195,21.35-48.469,45.913l0.019,101.867
		c1.435,24.422,22.194,45.611,48.45,45.604h96.443c26.149-1.595,47.019-21.183,48.454-45.604L456.292,1222.102z"/>
	<path display="inline" fill="#FFFFFF" d="M318.395,1231.777c0,0,2.259-1.145,8.947-1.286c3.125-0.064,14.344,1.945,18.25,3.54
		c-2.028-3.344-12.425-15.182-54.374-4.887c0,0,7.276,26.238,52.158,6.888C339.116,1234.352,330.888,1231.944,318.395,1231.777z"/>
	<path display="inline" fill="#FFFFFF" d="M350.748,1231.267c1.774-4.313,4.092-9.058,5.25-10.662
		c3.918-5.421,6.144-6.63,6.144-6.63c-5.113,7.618-7.926,14.027-9.472,18.664c23.215-9.596,16.657-31.115,16.657-31.115
		C350.227,1213.283,350.029,1226.393,350.748,1231.267z"/>
	<path display="inline" fill="#FFFFFF" d="M345.491,1236.052c0,0-18.581-19.224-40.95-25.32c-3.479-1.18-1.773-6.945,2.322-5.868
		c0,0,21.677,8.372,39.342,29.171l0.593,0.694C348.13,1236.398,346.363,1237.007,345.491,1236.052z"/>
	<path display="inline" fill="#FFFFFF" d="M384.835,1297.457c-6.895,0-13.333-1.927-18.827-5.261
		c-5.067,10.519-14.93,18.29-26.756,20.479c4.673,11.556,15.992,19.711,29.224,19.711c17.407,0,31.518-14.111,31.518-31.519
		c0-2.201-0.229-4.349-0.659-6.423C394.892,1296.379,389.991,1297.457,384.835,1297.457z"/>
	<path display="inline" fill="#FFFFFF" d="M385.057,1229.213c-12.726,0-23.673,7.574-28.604,18.458
		c8.079,5.68,13.362,15.064,13.362,25.691c0,4.613-1.003,8.99-2.792,12.937c5.104,3.588,11.32,5.701,18.033,5.701
		c17.338,0,31.394-14.055,31.394-31.394S402.395,1229.213,385.057,1229.213z"/>
	<circle display="inline" fill="#FFFFFF" cx="331.481" cy="1276.063" r="31.518"/>
</g>
<g id="Layer_1_copy_4" display="none">
	
		<text transform="matrix(1 0 0 1 536.248 1008.0488)" display="inline" fill="#2F1951" font-family="'CenturyGothic'" font-size="218.2321">Grapevine</text>
	<linearGradient id="SVGID_3_" gradientUnits="userSpaceOnUse" x1="231.376" y1="925.8984" x2="496.376" y2="925.8984">
		<stop  offset="0" style="stop-color:#C87EFB"/>
		<stop  offset="1" style="stop-color:#8665E1"/>
	</linearGradient>
	<path display="inline" fill="url(#SVGID_3_)" d="M496.374,992.064l-0.081-129.396c0.049-1.002,0.083-2.006,0.083-3.02
		c0-1.059-0.032-2.109-0.086-3.156v-0.09h-0.003c-1.742-33.619-30.417-60.65-66.379-62.842v-0.162H302.563
		c-1.48,0-2.948,0.055-4.406,0.139l-0.317,0.01v0.014c-35.96,2.193-64.633,29.223-66.376,62.842h-0.088v139.422h0.115
		c1.965,33.42,30.542,60.229,66.35,62.412v0.014h0.176c1.505,0.09,3.017,0.148,4.547,0.148c1.529,0,3.042-0.059,4.546-0.148h113.534
		c1.504,0.09,3.017,0.148,4.546,0.148c1.53,0,3.042-0.059,4.547-0.148h0.171v-0.014c35.809-2.182,64.389-28.992,66.354-62.412
		l0.113-3.596c0-0.027,0.002-0.053,0.002-0.08S496.374,992.094,496.374,992.064z"/>
	<path display="inline" fill="#FFFFFF" stroke="#FFFFFF" stroke-width="9" stroke-miterlimit="10" d="M460.402,879.102
		c-1.272-24.563-22.211-44.313-48.473-45.913h-96.443c-26.259,1.603-47.195,21.35-48.469,45.913l0.019,101.867
		c1.435,24.422,22.194,45.611,48.45,45.604h96.443c26.149-1.595,47.019-21.183,48.454-45.604L460.402,879.102z"/>
	
		<linearGradient id="SVGID_4_" gradientUnits="userSpaceOnUse" x1="759.4243" y1="929.1201" x2="812.2388" y2="929.1201" gradientTransform="matrix(0.8529 -0.5221 0.5221 0.8529 -839.7211 499.9805)">
		<stop  offset="0" style="stop-color:#C87EFB"/>
		<stop  offset="1" style="stop-color:#8665E1"/>
	</linearGradient>
	<path display="inline" fill="url(#SVGID_4_)" d="M315.637,881.961c0,0,2.697-1.367,10.681-1.534
		c3.731-0.078,17.123,2.321,21.787,4.225c-2.421-3.991-14.833-18.122-64.91-5.834c0,0,8.686,31.323,62.264,8.223
		C340.374,885.034,330.552,882.16,315.637,881.961z"/>
	
		<linearGradient id="SVGID_5_" gradientUnits="userSpaceOnUse" x1="819.2114" y1="940.853" x2="856.6646" y2="940.853" gradientTransform="matrix(0.8529 -0.5221 0.5221 0.8529 -839.7211 499.9805)">
		<stop  offset="0" style="stop-color:#C87EFB"/>
		<stop  offset="1" style="stop-color:#8665E1"/>
	</linearGradient>
	<path display="inline" fill="url(#SVGID_5_)" d="M354.26,881.351c2.117-5.149,4.885-10.812,6.268-12.728
		c4.677-6.471,7.334-7.915,7.334-7.915c-6.104,9.095-9.462,16.746-11.307,22.281c27.713-11.455,19.885-37.145,19.885-37.145
		C353.638,859.884,353.401,875.533,354.26,881.351z"/>
	
		<linearGradient id="SVGID_6_" gradientUnits="userSpaceOnUse" x1="784.1763" y1="922.2764" x2="813.0625" y2="922.2764" gradientTransform="matrix(0.8529 -0.5221 0.5221 0.8529 -839.7211 499.9805)">
		<stop  offset="0" style="stop-color:#C87EFB"/>
		<stop  offset="1" style="stop-color:#8665E1"/>
	</linearGradient>
	<path display="inline" fill="url(#SVGID_6_)" d="M347.984,887.063c0,0-22.182-22.948-48.885-30.228
		c-4.154-1.407-2.117-8.29,2.772-7.004c0,0,25.877,9.994,46.965,34.823l0.708,0.829
		C351.134,887.477,349.025,888.203,347.984,887.063z"/>
	<linearGradient id="SVGID_7_" gradientUnits="userSpaceOnUse" x1="340.5366" y1="978.0757" x2="413.0483" y2="978.0757">
		<stop  offset="0" style="stop-color:#C87EFB"/>
		<stop  offset="1" style="stop-color:#8665E1"/>
	</linearGradient>
	<path display="inline" fill="url(#SVGID_7_)" d="M394.952,960.368c-8.23,0-15.917-2.302-22.475-6.281
		c-6.049,12.557-17.824,21.835-31.941,24.447c5.579,13.794,19.091,23.53,34.886,23.53c20.78,0,37.625-16.845,37.625-37.626
		c0-2.628-0.273-5.191-0.786-7.667C406.958,959.08,401.106,960.368,394.952,960.368z"/>
	<linearGradient id="SVGID_8_" gradientUnits="userSpaceOnUse" x1="361.0708" y1="916.3765" x2="432.6934" y2="916.3765">
		<stop  offset="0" style="stop-color:#C87EFB"/>
		<stop  offset="1" style="stop-color:#8665E1"/>
	</linearGradient>
	<path display="inline" fill="url(#SVGID_8_)" d="M395.216,878.899c-15.191,0-28.26,9.042-34.146,22.034
		c9.644,6.781,15.951,17.984,15.951,30.67c0,5.508-1.197,10.732-3.332,15.443c6.093,4.283,13.513,6.807,21.526,6.807
		c20.698,0,37.477-16.778,37.477-37.478C432.693,895.678,415.915,878.899,395.216,878.899z"/>
	<linearGradient id="SVGID_9_" gradientUnits="userSpaceOnUse" x1="293.6343" y1="934.8276" x2="368.8853" y2="934.8276">
		<stop  offset="0" style="stop-color:#C87EFB"/>
		<stop  offset="1" style="stop-color:#8665E1"/>
	</linearGradient>
	<circle display="inline" fill="url(#SVGID_9_)" cx="331.26" cy="934.827" r="37.625"/>
</g>
<g id="Layer_1" display="none">
	
		<text transform="matrix(1 0 0 1 544.1323 639.9922)" display="inline" fill="#2F1951" font-family="'CenturyGothic'" font-size="218.2321">Grapevine</text>
	<linearGradient id="SVGID_10_" gradientUnits="userSpaceOnUse" x1="239.2603" y1="557.8418" x2="504.2603" y2="557.8418">
		<stop  offset="0" style="stop-color:#C87EFB"/>
		<stop  offset="1" style="stop-color:#8665E1"/>
	</linearGradient>
	<path display="inline" fill="url(#SVGID_10_)" d="M504.258,624.008l-0.081-129.396c0.049-1.002,0.083-2.006,0.083-3.02
		c0-1.059-0.032-2.109-0.086-3.156v-0.09h-0.003c-1.742-33.619-30.417-60.65-66.379-62.842v-0.162H310.447
		c-1.48,0-2.948,0.055-4.406,0.139l-0.317,0.01v0.014c-35.96,2.193-64.633,29.223-66.376,62.842h-0.088v139.421h0.115
		c1.965,33.42,30.542,60.229,66.35,62.412v0.014h0.176c1.505,0.09,3.017,0.148,4.547,0.148c1.529,0,3.042-0.059,4.546-0.148h113.534
		c1.504,0.09,3.017,0.148,4.546,0.148c1.53,0,3.042-0.059,4.547-0.148h0.171v-0.014c35.809-2.182,64.389-28.992,66.354-62.412
		l0.113-3.596c0-0.027,0.002-0.053,0.002-0.08S504.258,624.037,504.258,624.008z"/>
	<linearGradient id="SVGID_11_" gradientUnits="userSpaceOnUse" x1="291.4258" y1="566.8242" x2="451.7617" y2="566.8242">
		<stop  offset="0" style="stop-color:#8665E1"/>
		<stop  offset="1" style="stop-color:#C87EFB"/>
	</linearGradient>
	<path display="inline" fill="url(#SVGID_11_)" stroke="#FFFFFF" stroke-width="9" stroke-miterlimit="10" d="M451.762,524.723
		c-1.055-20.365-18.416-36.74-40.189-38.066h-79.961c-21.771,1.328-39.13,17.701-40.186,38.066l0.016,84.458
		c1.19,20.248,18.401,37.816,40.17,37.811h79.961c21.681-1.322,38.983-17.563,40.173-37.811L451.762,524.723z"/>
	<g display="inline">
		<path fill="#FFFFFF" d="M421.534,556.59l-17.008,37.388l-13.378-29.052c-0.673,3.09-1.715,5.918-3.111,8.498l15.866,34.455h1.226
			l23.476-51.289H421.534z"/>
		<path fill="#FFFFFF" d="M382.906,562.282l1.266,2.748c0.227-0.889,0.413-1.805,0.547-2.748H382.906z"/>
	</g>
	<g display="inline">
		<path fill="#FFFFFF" d="M383.165,529.731l-5.093,4.824c-3.663-3.602-7.676-6.334-12.038-8.195
			c-4.363-1.861-8.614-2.793-12.753-2.793c-5.152,0-10.058,1.268-14.719,3.797c-4.661,2.531-8.271,5.963-10.833,10.297
			c-2.562,4.332-3.842,8.912-3.842,13.736c0,4.943,1.325,9.641,3.977,14.094c2.65,4.451,6.313,7.949,10.988,10.496
			s9.797,3.82,15.367,3.82c6.76,0,12.477-1.906,17.153-5.719c4.675-3.811,7.445-8.756,8.309-14.83h-20.95v-6.344h28.321
			c-0.06,10.156-3.075,18.219-9.045,24.189c-5.971,5.971-13.959,8.957-23.965,8.957c-12.15,0-21.769-4.141-28.856-12.42
			c-5.45-6.373-8.174-13.742-8.174-22.111c0-6.223,1.563-12.016,4.69-17.377c3.127-5.359,7.415-9.551,12.865-12.574
			c5.45-3.021,11.614-4.533,18.494-4.533c5.568,0,10.81,1.004,15.723,3.016C373.695,522.071,378.489,525.295,383.165,529.731z"/>
	</g>
	<path display="inline" fill="#FFFFFF" d="M356.049,460.737c0,0,2.143,0.172,7.048,3.034c2.292,1.339,9.524,7.767,11.646,10.653
		c0.014-3.32-2.268-16.5-37.205-27.641c0,0-6.362,22.225,34.713,28.107C369.912,471.786,365.021,466.395,356.049,460.737z"/>
	<path display="inline" fill="#FFFFFF" d="M379.702,474.708c3.196-2.338,6.978-4.744,8.527-5.393
		c5.24-2.189,7.388-2.078,7.388-2.078c-7.08,3.25-11.958,6.645-15.132,9.316c21.063,3.342,25.854-15.147,25.854-15.147
		C387.295,461.456,381.341,470.86,379.702,474.708z"/>
	<path display="inline" fill="#D4BAFF" d="M373.774,475.842c0,0-4.934-22.156-18.428-36.486c-1.997-2.396,1.794-5.814,4.282-3.219
		c0,0,11.985,15.67,15.557,38.561l0.122,0.766C375.532,477.262,373.983,476.92,373.774,475.842z"/>
</g>
<g id="Layer_1_copy_2" display="none">
	
		<text transform="matrix(1 0 0 1 529.8877 253.9404)" display="inline" fill="#2F1951" font-family="'CenturyGothic'" font-size="218.2321">Grapevine</text>
	<linearGradient id="SVGID_12_" gradientUnits="userSpaceOnUse" x1="225.0156" y1="171.791" x2="490.0156" y2="171.791">
		<stop  offset="0" style="stop-color:#C87EFB"/>
		<stop  offset="1" style="stop-color:#8665E1"/>
	</linearGradient>
	<path display="inline" fill="url(#SVGID_12_)" d="M490.014,237.957l-0.081-129.397c0.049-1.001,0.083-2.006,0.083-3.019
		c0-1.059-0.032-2.11-0.086-3.157v-0.089h-0.003c-1.742-33.619-30.417-60.651-66.379-62.842v-0.162H296.203
		c-1.48,0-2.948,0.055-4.406,0.139l-0.317,0.01v0.014c-35.96,2.193-64.633,29.223-66.376,62.842h-0.088v139.422h0.115
		c1.965,33.419,30.542,60.228,66.35,62.412v0.014h0.176c1.505,0.089,3.017,0.148,4.547,0.148c1.529,0,3.042-0.06,4.546-0.148
		h113.534c1.504,0.089,3.017,0.148,4.546,0.148c1.53,0,3.042-0.06,4.547-0.148h0.171v-0.014
		c35.809-2.183,64.389-28.992,66.354-62.412l0.113-3.596c0-0.027,0.002-0.054,0.002-0.08
		C490.016,238.013,490.014,237.986,490.014,237.957z"/>
	<g display="inline">
		<path fill="#FFFFFF" stroke="#FFFFFF" stroke-width="4" stroke-miterlimit="10" d="M435.428,167.146l-26.83,58.98l-21.104-45.831
			c-1.062,4.875-2.705,9.338-4.907,13.406l25.029,54.354h1.933l37.033-80.909H435.428z"/>
		<path fill="#FFFFFF" stroke="#FFFFFF" stroke-width="4" stroke-miterlimit="10" d="M374.493,176.125l1.997,4.335
			c0.357-1.402,0.651-2.845,0.863-4.335H374.493z"/>
	</g>
	<g display="inline">
		<path fill="#FFFFFF" stroke="#FFFFFF" stroke-width="4" stroke-miterlimit="10" d="M374.902,124.778l-8.034,7.61
			c-5.778-5.683-12.108-9.994-18.99-12.93c-6.882-2.935-13.589-4.404-20.117-4.404c-8.128,0-15.867,1.998-23.219,5.99
			c-7.352,3.993-13.048,9.406-17.088,16.241c-4.041,6.835-6.061,14.059-6.061,21.671c0,7.796,2.091,15.206,6.273,22.23
			c4.181,7.021,9.958,12.54,17.333,16.558c7.375,4.018,15.455,6.026,24.241,6.026c10.664,0,19.682-3.007,27.059-9.02
			c7.375-6.013,11.744-13.813,13.106-23.396h-33.049V161.35h44.676c-0.095,16.02-4.851,28.74-14.269,38.157
			c-9.419,9.418-22.021,14.129-37.805,14.129c-19.167,0-34.34-6.53-45.521-19.59c-8.597-10.054-12.895-21.68-12.895-34.88
			c0-9.818,2.466-18.957,7.398-27.412c4.933-8.455,11.697-15.066,20.294-19.835c8.597-4.768,18.321-7.151,29.173-7.151
			c8.783,0,17.052,1.583,24.803,4.756C359.962,112.694,367.526,117.779,374.902,124.778z"/>
	</g>
	<path display="inline" fill="#FFFFFF" d="M384.702,105.534c0,0,1.761,1.232,4.442,6.339c1.252,2.387,3.997,11.961,4.253,15.697
		c1.83-3.069,7.069-16.414-17.087-44.225c0,0-17.676,17.392,14.674,43.408C390.658,122.707,389.374,115.267,384.702,105.534z"/>
	<path display="inline" fill="#FFFFFF" d="M397.537,130.314c4.047-0.563,8.64-0.898,10.337-0.723
		c5.736,0.597,7.535,1.775,7.535,1.775c-7.911-0.535-13.994,0.165-18.205,1.051c16.411,13.642,30.682-1.08,30.682-1.08
		C411.367,121.847,401.063,127.572,397.537,130.314z"/>
	<path display="inline" fill="#D4BAFF" d="M391.782,128.398c0,0,7.857-22.986,4.017-43.013c-0.418-3.219,4.737-4.485,5.47-0.836
		c0,0,1.8,20.511-7.637,43.495l-0.314,0.77C392.526,130.593,391.373,129.5,391.782,128.398z"/>
	<path fill="#379F00" d="M1137.074,383.278c0,0,2.27,0.232,7.41,3.386c2.4,1.474,9.926,8.466,12.109,11.579
		c0.094-3.523-2.02-17.564-38.84-30.206c0,0-7.273,23.439,36.186,30.644C1151.529,395.328,1146.463,389.495,1137.074,383.278z"/>
	<path fill="#3A7F00" d="M1161.852,398.658c3.447-2.404,7.516-4.872,9.178-5.523c5.611-2.202,7.889-2.033,7.889-2.033
		c-7.59,3.284-12.848,6.774-16.279,9.536c22.277,4.038,27.795-15.475,27.795-15.475
		C1170.221,384.772,1163.682,394.614,1161.852,398.658z"/>
	<path fill="#1A1A00" d="M1153.41,399.679c0,0-4.717-23.631-18.705-39.156c-2.063-2.589,2.039-6.128,4.619-3.315
		c0,0,12.354,16.911,15.611,41.289l0.111,0.815C1155.242,401.228,1153.607,400.827,1153.41,399.679z"/>
</g>
<g id="Layer_1_copy">
	<path fill="none" stroke="#2B2B2B" stroke-width="23" stroke-miterlimit="10" d="M445.34,1007.648
		c-1.745-33.661-30.438-60.722-66.423-62.917H246.759c-35.983,2.197-64.674,29.258-66.419,62.917l0.026,139.595
		c1.967,33.46,30.414,62.5,66.393,62.488h132.158c35.832-2.187,64.43-29.027,66.397-62.488L445.34,1007.648z"/>
	<g display="none">
		<path display="inline" fill="#2B2B2B" stroke="#2B2B2B" stroke-width="7" stroke-miterlimit="10" d="M330.956,1019.749
			l-9.328,8.836c-6.709-6.6-14.06-11.604-22.05-15.015c-7.992-3.407-15.778-5.113-23.359-5.113c-9.438,0-18.424,2.318-26.96,6.955
			c-8.538,4.637-15.151,10.922-19.841,18.859c-4.692,7.937-7.037,16.323-7.037,25.16c0,9.055,2.427,17.66,7.283,25.813
			c4.854,8.154,11.563,14.563,20.127,19.228c8.563,4.663,17.945,6.995,28.146,6.995c12.382,0,22.854-3.49,31.419-10.472
			c8.563-6.982,13.635-16.037,15.218-27.164H286.2v-11.619h51.874c-0.11,18.601-5.633,33.37-16.568,44.306
			c-10.938,10.938-25.569,16.405-43.896,16.405c-22.255,0-39.875-7.582-52.856-22.746c-9.982-11.673-14.973-25.173-14.973-40.501
			c0-11.4,2.863-22.01,8.591-31.828c5.727-9.818,13.582-17.496,23.564-23.032c9.981-5.536,21.273-8.305,33.874-8.305
			c10.199,0,19.8,1.841,28.8,5.523C313.61,1005.716,322.392,1011.621,330.956,1019.749z"/>
	</g>
	<g display="none">
		<path display="inline" fill="#2B2B2B" stroke="#2B2B2B" stroke-width="7" stroke-miterlimit="10" d="M402.236,1069.945
			l-31.155,68.481l-24.504-53.214c-1.233,5.659-3.141,10.843-5.698,15.564l29.063,63.114h2.245l43.001-93.946H402.236z"/>
		<path display="inline" fill="#2B2B2B" stroke="#2B2B2B" stroke-width="7" stroke-miterlimit="10" d="M331.481,1080.368
			l2.318,5.034c0.415-1.629,0.755-3.304,1.002-5.034H331.481z"/>
	</g>
	<text transform="matrix(1 0 0 1 670.8613 1163.8916)" fill="#2B2B2B" font-family="'CenturyGothic'" font-size="249.9425">Grapevine</text>
	<rect x="577.875" y="922.88" fill="#2B2B2B" width="15.75" height="310.702"/>
	<path fill="#2B2B2B" d="M259.568,1023.173c0,0,3.215-1.629,12.732-1.828c4.447-0.094,20.411,2.767,25.97,5.035
		c-2.886-4.757-17.681-21.602-77.374-6.954c0,0,10.354,37.339,74.221,9.802C289.056,1026.837,277.347,1023.411,259.568,1023.173z"/>
	<path fill="#2B2B2B" d="M305.608,1022.445c2.524-6.138,5.823-12.888,7.471-15.171c5.575-7.714,8.742-9.436,8.742-9.436
		c-7.277,10.842-11.279,19.962-13.479,26.561c33.035-13.655,23.704-44.278,23.704-44.278
		C304.866,996.856,304.584,1015.511,305.608,1022.445z"/>
	<path fill="#2B2B2B" d="M302.127,1027.256c0,0-26.441-27.355-58.273-36.032c-4.951-1.678-2.523-9.882,3.305-8.349
		c0,0,30.846,11.914,55.983,41.51l0.845,0.988C305.882,1027.748,303.368,1028.614,302.127,1027.256z"/>
	<path fill="#2B2B2B" d="M354.114,1116.637c-9.811,0-18.973-2.743-26.79-7.487c-7.21,14.968-21.247,26.028-38.075,29.143
		c6.65,16.442,22.757,28.049,41.585,28.049c24.771,0,44.851-20.08,44.851-44.852c0-3.133-0.326-6.188-0.937-9.14
		C368.425,1115.102,361.451,1116.637,354.114,1116.637z"/>
	<path fill="#2B2B2B" d="M354.429,1019.523c-18.108,0-33.687,10.778-40.702,26.266c11.495,8.084,19.014,21.438,19.014,36.56
		c0,6.565-1.427,12.793-3.972,18.409c7.263,5.105,16.108,8.113,25.66,8.113c24.673,0,44.674-20,44.674-44.674
		C399.103,1039.524,379.102,1019.523,354.429,1019.523z"/>
	<circle fill="#2B2B2B" cx="278.191" cy="1086.191" r="44.851"/>
</g>
<g id="Layer_2" display="none">
	
		<text transform="matrix(1 0 0 1 220.8071 397.1226)" display="inline" fill="#2F1951" font-family="'CenturyGothic'" font-size="140.4492">GrapeVine</text>
	<g display="inline">
		
			<linearGradient id="SVGID_13_" gradientUnits="userSpaceOnUse" x1="79.5078" y1="446.3262" x2="104.291" y2="446.3262" gradientTransform="matrix(0.9961 0.0881 -0.0881 0.9961 70.3163 -25.4879)">
			<stop  offset="0" style="stop-color:#92278F"/>
			<stop  offset="1" style="stop-color:#662D91"/>
		</linearGradient>
		<circle fill="url(#SVGID_13_)" cx="122.536" cy="427.193" r="12.391"/>
		
			<linearGradient id="SVGID_14_" gradientUnits="userSpaceOnUse" x1="50.8359" y1="418.3291" x2="83.3955" y2="418.3291" gradientTransform="matrix(0.9961 0.0881 -0.0881 0.9961 70.3163 -25.4879)">
			<stop  offset="0" style="stop-color:#92278F"/>
			<stop  offset="1" style="stop-color:#662D91"/>
		</linearGradient>
		<circle fill="url(#SVGID_14_)" cx="100.315" cy="397.123" r="16.28"/>
		
			<linearGradient id="SVGID_15_" gradientUnits="userSpaceOnUse" x1="127.4702" y1="345.5596" x2="147.1543" y2="345.5596" gradientTransform="matrix(0.9961 0.0881 -0.0881 0.9961 70.3163 -25.4879)">
			<stop  offset="0" style="stop-color:#92278F"/>
			<stop  offset="1" style="stop-color:#662D91"/>
		</linearGradient>
		<circle fill="url(#SVGID_15_)" cx="176.649" cy="330.821" r="9.842"/>
		
			<linearGradient id="SVGID_16_" gradientUnits="userSpaceOnUse" x1="130.25" y1="242.9629" x2="149.9346" y2="242.9629" gradientTransform="matrix(0.9961 0.0881 -0.0881 0.9961 70.3163 -25.4879)">
			<stop  offset="0" style="stop-color:#92278F"/>
			<stop  offset="1" style="stop-color:#662D91"/>
		</linearGradient>
		<circle fill="url(#SVGID_16_)" cx="188.457" cy="228.87" r="9.842"/>
		
			<linearGradient id="SVGID_17_" gradientUnits="userSpaceOnUse" x1="65.7813" y1="238.1885" x2="85.4653" y2="238.1885" gradientTransform="matrix(0.9961 0.0881 -0.0881 0.9961 70.3163 -25.4879)">
			<stop  offset="0" style="stop-color:#92278F"/>
			<stop  offset="1" style="stop-color:#662D91"/>
		</linearGradient>
		<circle fill="url(#SVGID_17_)" cx="124.66" cy="218.434" r="9.842"/>
		
			<linearGradient id="SVGID_18_" gradientUnits="userSpaceOnUse" x1="76.0659" y1="377.7119" x2="132.5181" y2="377.7119" gradientTransform="matrix(0.9961 0.0881 -0.0881 0.9961 70.3163 -25.4879)">
			<stop  offset="0" style="stop-color:#92278F"/>
			<stop  offset="1" style="stop-color:#662D91"/>
		</linearGradient>
		<circle fill="url(#SVGID_18_)" cx="140.925" cy="359.939" r="28.226"/>
		
			<linearGradient id="SVGID_19_" gradientUnits="userSpaceOnUse" x1="6.7041" y1="262.6582" x2="65.7808" y2="262.6582" gradientTransform="matrix(0.9961 0.0881 -0.0881 0.9961 70.3163 -25.4879)">
			<stop  offset="0" style="stop-color:#92278F"/>
			<stop  offset="1" style="stop-color:#662D91"/>
		</linearGradient>
		<circle fill="url(#SVGID_19_)" cx="83.277" cy="239.339" r="29.538"/>
		
			<linearGradient id="SVGID_20_" gradientUnits="userSpaceOnUse" x1="123.5693" y1="290.5107" x2="187.3647" y2="290.5107" gradientTransform="matrix(0.9961 0.0881 -0.0881 0.9961 70.3163 -25.4879)">
			<stop  offset="0" style="stop-color:#92278F"/>
			<stop  offset="1" style="stop-color:#662D91"/>
		</linearGradient>
		<circle fill="url(#SVGID_20_)" cx="199.583" cy="277.586" r="31.897"/>
		
			<linearGradient id="SVGID_21_" gradientUnits="userSpaceOnUse" x1="98.5542" y1="421.083" x2="117.8306" y2="421.083" gradientTransform="matrix(0.9961 0.0881 -0.0881 0.9961 70.3163 -25.4879)">
			<stop  offset="0" style="stop-color:#92278F"/>
			<stop  offset="1" style="stop-color:#662D91"/>
		</linearGradient>
		<circle fill="url(#SVGID_21_)" cx="140.989" cy="403.484" r="9.638"/>
		
			<linearGradient id="SVGID_22_" gradientUnits="userSpaceOnUse" x1="73.7593" y1="290.5098" x2="93.0356" y2="290.5098" gradientTransform="matrix(0.9961 0.0881 -0.0881 0.9961 70.3163 -25.4879)">
			<stop  offset="0" style="stop-color:#92278F"/>
			<stop  offset="1" style="stop-color:#662D91"/>
		</linearGradient>
		<circle fill="url(#SVGID_22_)" cx="127.794" cy="271.236" r="9.638"/>
		
			<linearGradient id="SVGID_23_" gradientUnits="userSpaceOnUse" x1="41.644" y1="381.8423" x2="60.9204" y2="381.8423" gradientTransform="matrix(0.9961 0.0881 -0.0881 0.9961 70.3163 -25.4879)">
			<stop  offset="0" style="stop-color:#92278F"/>
			<stop  offset="1" style="stop-color:#662D91"/>
		</linearGradient>
		<circle fill="url(#SVGID_23_)" cx="87.758" cy="359.383" r="9.638"/>
		
			<linearGradient id="SVGID_24_" gradientUnits="userSpaceOnUse" x1="18.3716" y1="330.8975" x2="77.769" y2="330.8975" gradientTransform="matrix(0.9961 0.0881 -0.0881 0.9961 70.3163 -25.4879)">
			<stop  offset="0" style="stop-color:#92278F"/>
			<stop  offset="1" style="stop-color:#662D91"/>
		</linearGradient>
		<circle fill="url(#SVGID_24_)" cx="89.047" cy="308.354" r="29.699"/>
		
			<linearGradient id="SVGID_25_" gradientUnits="userSpaceOnUse" x1="85.0166" y1="323.3252" x2="123.5693" y2="323.3252" gradientTransform="matrix(0.9961 0.0881 -0.0881 0.9961 70.3163 -25.4879)">
			<stop  offset="0" style="stop-color:#92278F"/>
			<stop  offset="1" style="stop-color:#662D91"/>
		</linearGradient>
		<circle fill="url(#SVGID_25_)" cx="145.717" cy="305.764" r="19.276"/>
		
			<linearGradient id="SVGID_26_" gradientUnits="userSpaceOnUse" x1="85.0171" y1="259.3008" x2="123.5698" y2="259.3008" gradientTransform="matrix(0.9961 0.0881 -0.0881 0.9961 70.3163 -25.4879)">
			<stop  offset="0" style="stop-color:#92278F"/>
			<stop  offset="1" style="stop-color:#662D91"/>
		</linearGradient>
		<circle fill="url(#SVGID_26_)" cx="151.358" cy="241.99" r="19.276"/>
	</g>
	<g display="inline">
		
			<linearGradient id="SVGID_27_" gradientUnits="userSpaceOnUse" x1="79.5078" y1="446.3262" x2="104.291" y2="446.3262" gradientTransform="matrix(0.9961 0.0881 -0.0881 0.9961 70.3163 -25.4879)">
			<stop  offset="0" style="stop-color:#9E1F63"/>
			<stop  offset="1" style="stop-color:#EC008C"/>
		</linearGradient>
		<circle fill="url(#SVGID_27_)" cx="122.536" cy="427.193" r="12.391"/>
		
			<linearGradient id="SVGID_28_" gradientUnits="userSpaceOnUse" x1="50.8359" y1="418.3291" x2="83.3955" y2="418.3291" gradientTransform="matrix(0.9961 0.0881 -0.0881 0.9961 70.3163 -25.4879)">
			<stop  offset="0" style="stop-color:#9E1F63"/>
			<stop  offset="1" style="stop-color:#EC008C"/>
		</linearGradient>
		<circle fill="url(#SVGID_28_)" cx="100.315" cy="397.123" r="16.28"/>
		
			<linearGradient id="SVGID_29_" gradientUnits="userSpaceOnUse" x1="76.0659" y1="377.7119" x2="132.5181" y2="377.7119" gradientTransform="matrix(0.9961 0.0881 -0.0881 0.9961 70.3163 -25.4879)">
			<stop  offset="0" style="stop-color:#9E1F63"/>
			<stop  offset="1" style="stop-color:#EC008C"/>
		</linearGradient>
		<circle fill="url(#SVGID_29_)" cx="140.925" cy="359.939" r="28.226"/>
		
			<linearGradient id="SVGID_30_" gradientUnits="userSpaceOnUse" x1="6.7041" y1="262.6582" x2="65.7808" y2="262.6582" gradientTransform="matrix(0.9961 0.0881 -0.0881 0.9961 70.3163 -25.4879)">
			<stop  offset="0" style="stop-color:#9E1F63"/>
			<stop  offset="1" style="stop-color:#EC008C"/>
		</linearGradient>
		<circle fill="url(#SVGID_30_)" cx="83.277" cy="239.339" r="29.538"/>
		
			<linearGradient id="SVGID_31_" gradientUnits="userSpaceOnUse" x1="123.5693" y1="290.5107" x2="187.3647" y2="290.5107" gradientTransform="matrix(0.9961 0.0881 -0.0881 0.9961 70.3163 -25.4879)">
			<stop  offset="0" style="stop-color:#9E1F63"/>
			<stop  offset="1" style="stop-color:#EC008C"/>
		</linearGradient>
		<circle fill="url(#SVGID_31_)" cx="199.583" cy="277.586" r="31.897"/>
		
			<linearGradient id="SVGID_32_" gradientUnits="userSpaceOnUse" x1="85.0166" y1="323.3252" x2="123.5693" y2="323.3252" gradientTransform="matrix(0.9961 0.0881 -0.0881 0.9961 70.3163 -25.4879)">
			<stop  offset="0" style="stop-color:#9E1F63"/>
			<stop  offset="1" style="stop-color:#EC008C"/>
		</linearGradient>
		<circle fill="url(#SVGID_32_)" cx="145.717" cy="305.764" r="19.276"/>
		
			<linearGradient id="SVGID_33_" gradientUnits="userSpaceOnUse" x1="85.0171" y1="259.3008" x2="123.5698" y2="259.3008" gradientTransform="matrix(0.9961 0.0881 -0.0881 0.9961 70.3163 -25.4879)">
			<stop  offset="0" style="stop-color:#9E1F63"/>
			<stop  offset="1" style="stop-color:#EC008C"/>
		</linearGradient>
		<circle fill="url(#SVGID_33_)" cx="151.358" cy="241.99" r="19.276"/>
	</g>
	<path display="inline" fill="#379F00" d="M123.327,180.262c0,0,3.776,0.388,12.322,5.631c3.994,2.451,16.508,14.078,20.139,19.255
		c0.154-5.86-3.359-29.209-64.588-50.229c0,0-12.094,38.977,60.174,50.956C147.364,200.3,138.942,190.6,123.327,180.262z"/>
	<path display="inline" fill="#3A7F00" d="M164.529,205.838c5.732-3.997,12.5-8.101,15.26-9.184
		c9.334-3.662,13.119-3.381,13.119-3.381c-12.622,5.46-21.363,11.264-27.068,15.856c37.045,6.716,46.218-25.731,46.218-25.731
		C178.446,182.747,167.572,199.115,164.529,205.838z"/>
	<path display="inline" fill="#1A1A00" d="M150.493,207.535c0,0-7.846-39.295-31.106-65.112c-3.431-4.307,3.393-10.191,7.684-5.514
		c0,0,20.543,28.122,25.958,68.661l0.185,1.354C153.539,210.112,150.82,209.446,150.493,207.535z"/>
</g>
</svg>
